<svg xmlns="http://www.w3.org/2000/svg" viewBox="0 0 256.91 72.25"><defs><style>.cls-1{fill:#c1666b;stroke:#c1666b;stroke-miterlimit:10;stroke-width:4px;}</style></defs><title>Recurso 1</title><g id="Capa_2" data-name="Capa 2"><g id="Capa_1-2" data-name="Capa 1"><path class="cls-1" d="M20.17,70.25q-7.11,0-12.64-7.06T2,48.52q0-9,5.47-20.48A53.85,53.85,0,0,1,21.73,9.26Q30.52,2,40,2A35.18,35.18,0,0,1,52.17,3.8,27.72,27.72,0,0,1,60.87,9,17.31,17.31,0,0,1,66,15.91a30.3,30.3,0,0,1,1.29,10q0,6-3.65,14.13A53.68,53.68,0,0,1,52.32,55.76q-7.71,7.7-14.6,11.09T20.17,70.25Zm-10-22.13A14.71,14.71,0,0,0,14,58.52a12,12,0,0,0,9.07,4.22q13.41,0,24.66-12.35T59,24.17q0-5.28-2.07-8.33a16,16,0,0,0-6.64-5.2A23.88,23.88,0,0,0,40,8.49q-10,0-19.93,13.51T10.13,48.12Z"/><path class="cls-1" d="M78.34,52.33a32.58,32.58,0,0,1,7.92-9.77q4.6-3.75,8.3-3.74A4.22,4.22,0,0,1,98,40.71a7.42,7.42,0,0,1,1.43,4.6q0,8.05-6.07,15.1t-12.83,7a6.09,6.09,0,0,1-3.37-1A3.44,3.44,0,0,1,75.47,64a2.87,2.87,0,0,0-.7-1.81,3.36,3.36,0,0,1-1.12-2.38A80.59,80.59,0,0,1,75,49.71l2.66-15.47a90.46,90.46,0,0,1,2-9.63A5.35,5.35,0,0,1,81,22.15,3,3,0,0,1,83,21.53c1.2,0,1.81,1,1.81,3.13a26,26,0,0,1-2,8.33Q80.85,38.15,78.34,52.33Zm-.62,8.61c.89,1.68,2,2.51,3.26,2.51A10.62,10.62,0,0,0,87.22,61a20.61,20.61,0,0,0,5.68-6.89,16.61,16.61,0,0,0,2.39-7.49,5.16,5.16,0,0,0-.49-2.35c-.33-.66-.74-1-1.24-1q-3.6,0-8.79,5.89A33.32,33.32,0,0,0,77.72,60.94Z"/><path class="cls-1" d="M117.47,61.13c0-1.13-1.38-2.4-4.14-3.84a39.51,39.51,0,0,1-7.11-4.3,4.76,4.76,0,0,1-1.85-3.61q0-5.16,5.17-8.54T118,37.45a5.06,5.06,0,0,1,3,.72,3,3,0,0,1,.94,2.51,1.72,1.72,0,0,1-.68,1.37,2,2,0,0,1-1.07.57,3.45,3.45,0,0,1-1.12-.39,3.71,3.71,0,0,0-1.08-.36q-1.3,0-5.26,1.89t-4,4.27a3.42,3.42,0,0,0,1.4,2.63,25.15,25.15,0,0,0,5,2.88,19.12,19.12,0,0,1,4.67,3,4.9,4.9,0,0,1,1.75,3.74q0,4-5.46,6.2a27.55,27.55,0,0,1-10.43,2.24c-2.8,0-4.19-.95-4.19-2.85a1.53,1.53,0,0,1,.94-1.45,4.25,4.25,0,0,1,1.9-.46,7.92,7.92,0,0,1,1.48.25,7.05,7.05,0,0,0,1.4.26,22.45,22.45,0,0,0,6.16-.95C115.6,62.87,117,62.07,117.47,61.13Z"/><path class="cls-1" d="M131.88,61.31a20.24,20.24,0,0,0,.55,4.42,4.37,4.37,0,0,1,.1.78c0,.31-.29.71-.85,1.2a2.76,2.76,0,0,1-1.82.74q-2.51,0-2.51-4.61a90.68,90.68,0,0,1,2-15.06,35.75,35.75,0,0,0,.67-4.42,6,6,0,0,1,.6-2.79,1.85,1.85,0,0,1,1.68-1.15,3.12,3.12,0,0,1,2.08.64,1.82,1.82,0,0,1,.77,1.41,7.89,7.89,0,0,1-.36,2,94.93,94.93,0,0,0-2.41,9.78A45.79,45.79,0,0,0,131.88,61.31Zm3.39-28.91c-.36,0-.64-.39-.83-1.17a6.48,6.48,0,0,0-.28-.8,7.72,7.72,0,0,1-.7-2.92,3,3,0,0,1,1.23-2.11,4,4,0,0,1,2.73-1.08,3.25,3.25,0,0,1,1.68.59c.62.38.93.76.93,1.12a11.57,11.57,0,0,1-.63,2.9,4.36,4.36,0,0,1-2,2.76A5.23,5.23,0,0,1,135.27,32.4Z"/><path class="cls-1" d="M160.81,56.34a32.5,32.5,0,0,1-7.34,8.58q-3.89,3-7.15,3a4.7,4.7,0,0,1-4-1.93,8.31,8.31,0,0,1-1.46-5.13q0-6.55,5.32-13.44t11.47-6.88a7,7,0,0,1,5,2.3l3.62-16.92a3.34,3.34,0,0,1,1.44-2.33,3.66,3.66,0,0,1,1.64-.6c1.21,0,1.81,1.08,1.81,3.21A26.33,26.33,0,0,1,170,30.46a123.92,123.92,0,0,0-3.58,14,70,70,0,0,0-1.7,13.31q0,5.18,2.25,5.18a5.74,5.74,0,0,0,3-1,2.11,2.11,0,0,1,1.21-.47c.55,0,.83.37.83,1.09,0,.88-.77,1.9-2.32,3.05A7.8,7.8,0,0,1,165,67.39q-4.28,0-4.27-8.23Q160.69,57.77,160.81,56.34Zm-3.38-12.11q-4.2,0-8.31,5.68T145,60.4c0,2.16.72,3.23,2.15,3.23s3-.7,4.91-2.12A26.16,26.16,0,0,0,158,54.75q3.06-4.65,3.06-7A3.61,3.61,0,0,0,160,45.43,3.29,3.29,0,0,0,157.43,44.23Z"/><path class="cls-1" d="M182.24,61.31a20.24,20.24,0,0,0,.55,4.42,4.37,4.37,0,0,1,.1.78c0,.31-.29.71-.85,1.2a2.76,2.76,0,0,1-1.82.74q-2.5,0-2.51-4.61a90.68,90.68,0,0,1,2-15.06,35.75,35.75,0,0,0,.67-4.42,6,6,0,0,1,.6-2.79,1.86,1.86,0,0,1,1.68-1.15,3.12,3.12,0,0,1,2.08.64,1.82,1.82,0,0,1,.77,1.41,7.89,7.89,0,0,1-.36,2,94.93,94.93,0,0,0-2.41,9.78A45.79,45.79,0,0,0,182.24,61.31Zm3.39-28.91c-.36,0-.64-.39-.82-1.17-.07-.24-.17-.5-.29-.8a7.72,7.72,0,0,1-.7-2.92,3,3,0,0,1,1.23-2.11,4,4,0,0,1,2.73-1.08,3.25,3.25,0,0,1,1.68.59c.62.38.94.76.94,1.12a11.72,11.72,0,0,1-.64,2.9,4.36,4.36,0,0,1-2,2.76A5.23,5.23,0,0,1,185.63,32.4Z"/><path class="cls-1" d="M210.06,57.63a31.31,31.31,0,0,1-7.17,7.3,11.74,11.74,0,0,1-6.49,2.43A4.4,4.4,0,0,1,193,65.68a6.36,6.36,0,0,1-1.45-4.32q0-6.81,6.08-14.66t12.08-7.86q2.18,0,3.24,2.49a1.12,1.12,0,0,0,1.06.83c1.38,0,2.07.53,2.07,1.6a13.18,13.18,0,0,1-.26,2.2,70.24,70.24,0,0,0-1.4,10.76q0,6.27,2.39,7.51a1.79,1.79,0,0,1,1.13,1.53,2.17,2.17,0,0,1-1.11,1.61,3.63,3.63,0,0,1-2.15.82c-1.33,0-2.42-.92-3.28-2.74A18.72,18.72,0,0,1,210.06,57.63Zm-1.58-14.57q-3.4,0-7.94,6.41T196,60.09c0,2,.66,3,2,3,1.89,0,4.53-1.92,7.89-5.75s5-7.35,5-10.56C210.92,44.29,210.1,43.06,208.48,43.06Z"/><path class="cls-1" d="M241.35,47.15a4.32,4.32,0,0,0-2.94,1.76,46.1,46.1,0,0,0-4.85,7.89Q229.27,65,228,66.17a3.53,3.53,0,0,1-2.08,1.14q-3.06,0-3.06-3a20.89,20.89,0,0,1,.42-3.52,92.77,92.77,0,0,0,1.42-16.48,3.93,3.93,0,0,1,.84-2.19c.56-.8,1.09-1.21,1.59-1.21a2.17,2.17,0,0,1,1.92.83,6.58,6.58,0,0,1,.57,3.34,73.78,73.78,0,0,1-1.56,10.77,25.46,25.46,0,0,0-.51,3.41c0,.28.07.42.2.42s1.46-2.06,3.6-6.19A40.67,40.67,0,0,1,237,44.69a7.28,7.28,0,0,1,5.36-2.56,4.45,4.45,0,0,1,3.79,2.12q1.45,2.13,2.13,7.74a45.87,45.87,0,0,0,1.31,8c.39,1,1,1.56,1.85,1.56a5,5,0,0,0,2-.57,1,1,0,0,1,.31-.1q1.11,0,1.11,1.29a3.43,3.43,0,0,1-1.53,2.42,5.47,5.47,0,0,1-3.67,1.28,3.88,3.88,0,0,1-3.4-1.74c-.81-1.17-1.44-4.28-1.91-9.33S242.9,47.15,241.35,47.15Z"/></g></g></svg>